<svg width="20" height="20" viewBox="0 0 20 20" fill="none" xmlns="http://www.w3.org/2000/svg">
<path d="M5 3.00879C4.46957 3.00879 3.96086 3.21726 3.58579 3.58834C3.21071 3.95942 3 4.46271 3 4.98749V6.9662C3 7.49098 3.21071 7.99427 3.58579 8.36535C3.96086 8.73643 4.46957 8.9449 5 8.9449H7C7.53043 8.9449 8.03914 8.73643 8.41421 8.36535C8.78929 7.99427 9 7.49098 9 6.9662V4.98749C9 4.46271 8.78929 3.95942 8.41421 3.58834C8.03914 3.21726 7.53043 3.00879 7 3.00879H5ZM5 10.9236C4.46957 10.9236 3.96086 11.1321 3.58579 11.5032C3.21071 11.8742 3 12.3775 3 12.9023V14.881C3 15.4058 3.21071 15.9091 3.58579 16.2802C3.96086 16.6512 4.46957 16.8597 5 16.8597H7C7.53043 16.8597 8.03914 16.6512 8.41421 16.2802C8.78929 15.9091 9 15.4058 9 14.881V12.9023C9 12.3775 8.78929 11.8742 8.41421 11.5032C8.03914 11.1321 7.53043 10.9236 7 10.9236H5ZM11 4.98749C11 4.46271 11.2107 3.95942 11.5858 3.58834C11.9609 3.21726 12.4696 3.00879 13 3.00879H15C15.5304 3.00879 16.0391 3.21726 16.4142 3.58834C16.7893 3.95942 17 4.46271 17 4.98749V6.9662C17 7.49098 16.7893 7.99427 16.4142 8.36535C16.0391 8.73643 15.5304 8.9449 15 8.9449H13C12.4696 8.9449 11.9609 8.73643 11.5858 8.36535C11.2107 7.99427 11 7.49098 11 6.9662V4.98749ZM11 12.9023C11 12.3775 11.2107 11.8742 11.5858 11.5032C11.9609 11.1321 12.4696 10.9236 13 10.9236H15C15.5304 10.9236 16.0391 11.1321 16.4142 11.5032C16.7893 11.8742 17 12.3775 17 12.9023V14.881C17 15.4058 16.7893 15.9091 16.4142 16.2802C16.0391 16.6512 15.5304 16.8597 15 16.8597H13C12.4696 16.8597 11.9609 16.6512 11.5858 16.2802C11.2107 15.9091 11 15.4058 11 14.881V12.9023Z" fill="#9CA3AF"/>
</svg>
