<svg width="16" height="16" viewBox="0 0 16 16" fill="none" xmlns="http://www.w3.org/2000/svg">
<path d="M8.63628 1.06368C8.4675 0.894955 8.23862 0.800171 7.99998 0.800171C7.76133 0.800171 7.53245 0.894955 7.36368 1.06368L1.06368 7.36368C0.899733 7.53342 0.809019 7.76076 0.811069 7.99674C0.81312 8.23272 0.907772 8.45845 1.07464 8.62532C1.24151 8.79218 1.46724 8.88684 1.70321 8.88889C1.93919 8.89094 2.16653 8.80022 2.33628 8.63628L2.59998 8.37258V14.3C2.59998 14.5387 2.6948 14.7676 2.86358 14.9364C3.03236 15.1052 3.26128 15.2 3.49998 15.2H5.29998C5.53867 15.2 5.76759 15.1052 5.93637 14.9364C6.10515 14.7676 6.19998 14.5387 6.19998 14.3V12.5C6.19998 12.2613 6.2948 12.0324 6.46358 11.8636C6.63236 11.6948 6.86128 11.6 7.09998 11.6H8.89998C9.13867 11.6 9.36759 11.6948 9.53637 11.8636C9.70515 12.0324 9.79998 12.2613 9.79998 12.5V14.3C9.79998 14.5387 9.8948 14.7676 10.0636 14.9364C10.2324 15.1052 10.4613 15.2 10.7 15.2H12.5C12.7387 15.2 12.9676 15.1052 13.1364 14.9364C13.3052 14.7676 13.4 14.5387 13.4 14.3V8.37258L13.6637 8.63628C13.8334 8.80022 14.0608 8.89094 14.2967 8.88889C14.5327 8.88684 14.7584 8.79218 14.9253 8.62532C15.0922 8.45845 15.1868 8.23272 15.1889 7.99674C15.1909 7.76076 15.1002 7.53342 14.9363 7.36368L8.63628 1.06368Z" fill="#374151"/>
</svg>
