<svg width="14" height="16" viewBox="0 0 14 16" fill="none" xmlns="http://www.w3.org/2000/svg">
<path fill-rule="evenodd" clip-rule="evenodd" d="M6.99994 0.799988C5.01184 0.799988 3.39994 2.41189 3.39994 4.39999V5.29999H2.49994C2.04094 5.29999 1.65575 5.6447 1.60535 6.101L0.705353 14.201C0.677453 14.4548 0.758446 14.7095 0.929446 14.9003C1.10045 15.0911 1.34434 15.2 1.59994 15.2H12.3999C12.6555 15.2 12.8994 15.0911 13.0704 14.9003C13.2414 14.7095 13.3224 14.4548 13.2945 14.201L12.3945 6.101C12.3441 5.6447 11.9589 5.29999 11.4999 5.29999H10.5999V4.39999C10.5999 2.41189 8.98804 0.799988 6.99994 0.799988ZM8.79994 5.29999V4.39999C8.79994 3.40549 7.99444 2.59999 6.99994 2.59999C6.00544 2.59999 5.19994 3.40549 5.19994 4.39999V5.29999H8.79994ZM3.39994 7.99999C3.39994 7.50319 3.80314 7.09999 4.29994 7.09999C4.79674 7.09999 5.19994 7.50319 5.19994 7.99999C5.19994 8.49679 4.79674 8.89999 4.29994 8.89999C3.80314 8.89999 3.39994 8.49679 3.39994 7.99999ZM9.69994 7.09999C9.20314 7.09999 8.79994 7.50319 8.79994 7.99999C8.79994 8.49679 9.20314 8.89999 9.69994 8.89999C10.1967 8.89999 10.5999 8.49679 10.5999 7.99999C10.5999 7.50319 10.1967 7.09999 9.69994 7.09999Z" fill="#374151"/>
</svg>
