<svg width="16" height="16" viewBox="0 0 16 16" fill="none" xmlns="http://www.w3.org/2000/svg">
<path fill-rule="evenodd" clip-rule="evenodd" d="M4.64035 2.10948C5.21928 2.06326 5.76887 1.83555 6.21084 1.45878C6.71004 1.03362 7.34433 0.80011 8.00004 0.80011C8.65576 0.80011 9.29005 1.03362 9.78924 1.45878C10.2312 1.83555 10.7808 2.06326 11.3597 2.10948C12.0135 2.16173 12.6273 2.44515 13.0911 2.90892C13.5549 3.37269 13.8383 3.9865 13.8905 4.64028C13.9364 5.21898 14.1641 5.76888 14.5412 6.21078C14.9664 6.70998 15.1999 7.34427 15.1999 7.99998C15.1999 8.6557 14.9664 9.28999 14.5412 9.78918C14.1645 10.2312 13.9368 10.7808 13.8905 11.3597C13.8383 12.0135 13.5549 12.6273 13.0911 13.091C12.6273 13.5548 12.0135 13.8382 11.3597 13.8905C10.7808 13.9367 10.2312 14.1644 9.78924 14.5412C9.29005 14.9664 8.65576 15.1999 8.00004 15.1999C7.34433 15.1999 6.71004 14.9664 6.21084 14.5412C5.76887 14.1644 5.21928 13.9367 4.64035 13.8905C3.98656 13.8382 3.37276 13.5548 2.90898 13.091C2.44521 12.6273 2.1618 12.0135 2.10954 11.3597C2.06332 10.7808 1.83561 10.2312 1.45884 9.78918C1.03368 9.28999 0.800171 8.6557 0.800171 7.99998C0.800171 7.34427 1.03368 6.70998 1.45884 6.21078C1.83561 5.76881 2.06332 5.21922 2.10954 4.64028C2.1618 3.9865 2.44521 3.37269 2.90898 2.90892C3.37276 2.44515 3.98656 2.16173 4.64035 2.10948ZM11.3363 6.83628C11.5003 6.66654 11.591 6.4392 11.589 6.20322C11.5869 5.96725 11.4922 5.74151 11.3254 5.57465C11.1585 5.40778 10.9328 5.31313 10.6968 5.31108C10.4608 5.30903 10.2335 5.39974 10.0637 5.56368L7.10005 8.52738L5.93634 7.36368C5.7666 7.19974 5.53926 7.10903 5.30328 7.11108C5.06731 7.11313 4.84158 7.20778 4.67471 7.37465C4.50784 7.54151 4.41319 7.76725 4.41114 8.00322C4.40909 8.2392 4.4998 8.46654 4.66375 8.63628L6.46375 10.4363C6.63252 10.605 6.8614 10.6998 7.10005 10.6998C7.33869 10.6998 7.56757 10.605 7.73634 10.4363L11.3363 6.83628Z" fill="#374151"/>
</svg>
