<svg width="18" height="15" viewBox="0 0 18 15" fill="none" xmlns="http://www.w3.org/2000/svg">
<path d="M11.7 3.40001C11.7 4.1161 11.4156 4.80285 10.9092 5.3092C10.4029 5.81555 9.71611 6.10001 9.00002 6.10001C8.28394 6.10001 7.59719 5.81555 7.09084 5.3092C6.58449 4.80285 6.30002 4.1161 6.30002 3.40001C6.30002 2.68393 6.58449 1.99717 7.09084 1.49082C7.59719 0.984476 8.28394 0.700012 9.00002 0.700012C9.71611 0.700012 10.4029 0.984476 10.9092 1.49082C11.4156 1.99717 11.7 2.68393 11.7 3.40001ZM16.2 5.20001C16.2 5.6774 16.0104 6.13524 15.6728 6.4728C15.3353 6.81037 14.8774 7.00001 14.4 7.00001C13.9226 7.00001 13.4648 6.81037 13.1272 6.4728C12.7897 6.13524 12.6 5.6774 12.6 5.20001C12.6 4.72262 12.7897 4.26479 13.1272 3.92722C13.4648 3.58965 13.9226 3.40001 14.4 3.40001C14.8774 3.40001 15.3353 3.58965 15.6728 3.92722C16.0104 4.26479 16.2 4.72262 16.2 5.20001ZM12.6 11.5C12.6 10.5452 12.2207 9.62956 11.5456 8.95443C10.8705 8.2793 9.9548 7.90001 9.00002 7.90001C8.04525 7.90001 7.12957 8.2793 6.45444 8.95443C5.77931 9.62956 5.40002 10.5452 5.40002 11.5V14.2H12.6V11.5ZM5.40002 5.20001C5.40002 5.6774 5.21038 6.13524 4.87282 6.4728C4.53525 6.81037 4.07741 7.00001 3.60002 7.00001C3.12264 7.00001 2.6648 6.81037 2.32723 6.4728C1.98967 6.13524 1.80002 5.6774 1.80002 5.20001C1.80002 4.72262 1.98967 4.26479 2.32723 3.92722C2.6648 3.58965 3.12264 3.40001 3.60002 3.40001C4.07741 3.40001 4.53525 3.58965 4.87282 3.92722C5.21038 4.26479 5.40002 4.72262 5.40002 5.20001ZM14.4 14.2V11.5C14.4013 10.585 14.169 9.68474 13.725 8.88461C14.124 8.7825 14.5411 8.77287 14.9444 8.85646C15.3477 8.94005 15.7266 9.11465 16.0521 9.36693C16.3777 9.61922 16.6413 9.94253 16.8229 10.3122C17.0045 10.6819 17.0993 11.0881 17.1 11.5V14.2H14.4ZM4.27502 8.88461C3.8311 9.68475 3.59876 10.585 3.60002 11.5V14.2H0.900025V11.5C0.899851 11.0878 0.994041 10.6811 1.17538 10.311C1.35671 9.94085 1.62038 9.61715 1.94617 9.36469C2.27196 9.11222 2.65123 8.93769 3.0549 8.85448C3.45858 8.77126 3.87595 8.78157 4.27502 8.88461Z" fill="#374151"/>
</svg>
