<svg width="16" height="16" viewBox="0 0 16 16" fill="none" xmlns="http://www.w3.org/2000/svg">
<path fill-rule="evenodd" clip-rule="evenodd" d="M14.9364 7.36369C15.1051 7.53246 15.1999 7.76134 15.1999 7.99999C15.1999 8.23864 15.1051 8.46751 14.9364 8.63629L8.63635 14.9363C8.46758 15.105 8.2387 15.1998 8.00005 15.1998C7.7614 15.1998 7.53252 15.105 7.36375 14.9363L1.06375 8.63629C0.980051 8.55282 0.913668 8.45364 0.868414 8.34445C0.82316 8.23525 0.799927 8.11819 0.800049 7.99999V3.49999C0.800049 2.7839 1.08451 2.09715 1.59086 1.5908C2.09721 1.08445 2.78396 0.799988 3.50005 0.799988H8.00005C8.23045 0.799988 8.46085 0.888188 8.63635 1.06369L14.9364 7.36369ZM3.50005 4.39999C3.73874 4.39999 3.96766 4.30517 4.13645 4.13638C4.30523 3.9676 4.40005 3.73868 4.40005 3.49999C4.40005 3.26129 4.30523 3.03237 4.13645 2.86359C3.96766 2.69481 3.73874 2.59999 3.50005 2.59999C3.26135 2.59999 3.03244 2.69481 2.86365 2.86359C2.69487 3.03237 2.60005 3.26129 2.60005 3.49999C2.60005 3.73868 2.69487 3.9676 2.86365 4.13638C3.03244 4.30517 3.26135 4.39999 3.50005 4.39999Z" fill="#374151"/>
</svg>
