<svg width="16" height="16" viewBox="0 0 16 16" fill="none" xmlns="http://www.w3.org/2000/svg">
<path fill-rule="evenodd" clip-rule="evenodd" d="M8.00005 15.2C9.90961 15.2 11.741 14.4414 13.0912 13.0912C14.4415 11.7409 15.2 9.90955 15.2 7.99999C15.2 6.09043 14.4415 4.25908 13.0912 2.90882C11.741 1.55856 9.90961 0.799988 8.00005 0.799988C6.09049 0.799988 4.25914 1.55856 2.90888 2.90882C1.55862 4.25908 0.800049 6.09043 0.800049 7.99999C0.800049 9.90955 1.55862 11.7409 2.90888 13.0912C4.25914 14.4414 6.09049 15.2 8.00005 15.2ZM6.07225 3.93649C5.94932 3.73181 5.75012 3.58434 5.51846 3.52653C5.28681 3.46873 5.04168 3.50531 4.837 3.62824C4.63232 3.75117 4.48485 3.95037 4.42705 4.18202C4.36924 4.41368 4.40582 4.65881 4.52875 4.86349L5.86975 7.09999H5.30005C5.06135 7.09999 4.83244 7.19481 4.66365 7.36359C4.49487 7.53237 4.40005 7.76129 4.40005 7.99999C4.40005 8.23868 4.49487 8.4676 4.66365 8.63638C4.83244 8.80517 5.06135 8.89999 5.30005 8.89999H6.95065L7.10005 9.14929V9.79999H5.30005C5.06135 9.79999 4.83244 9.89481 4.66365 10.0636C4.49487 10.2324 4.40005 10.4613 4.40005 10.7C4.40005 10.9387 4.49487 11.1676 4.66365 11.3364C4.83244 11.5052 5.06135 11.6 5.30005 11.6H7.10005V12.5C7.10005 12.7387 7.19487 12.9676 7.36365 13.1364C7.53244 13.3052 7.76135 13.4 8.00005 13.4C8.23874 13.4 8.46766 13.3052 8.63644 13.1364C8.80523 12.9676 8.90005 12.7387 8.90005 12.5V11.6H10.7C10.9387 11.6 11.1677 11.5052 11.3364 11.3364C11.5052 11.1676 11.6 10.9387 11.6 10.7C11.6 10.4613 11.5052 10.2324 11.3364 10.0636C11.1677 9.89481 10.9387 9.79999 10.7 9.79999H8.90005V9.14929L9.04945 8.89999H10.7C10.9387 8.89999 11.1677 8.80517 11.3364 8.63638C11.5052 8.4676 11.6 8.23868 11.6 7.99999C11.6 7.76129 11.5052 7.53237 11.3364 7.36359C11.1677 7.19481 10.9387 7.09999 10.7 7.09999H10.1294L11.4722 4.86259C11.5951 4.65779 11.6315 4.41259 11.5735 4.18094C11.5155 3.94928 11.3679 3.75015 11.1631 3.62734C10.9583 3.50453 10.7131 3.46811 10.4814 3.52608C10.2498 3.58406 10.0507 3.73169 9.92785 3.93649L8.03065 7.09999H7.96945L6.07225 3.93649Z" fill="#374151"/>
</svg>
