<svg width="125" height="24" viewBox="0 0 125 24" fill="none" xmlns="http://www.w3.org/2000/svg">
<g clip-path="url(#clip0_942_2540)">
<path d="M50.4259 6.01629C48.841 8.11871 47.2237 10.4152 46.1563 12.0001C47.2237 13.585 48.841 15.8815 50.4259 17.9839C52.3666 20.5392 54.4367 22.8033 54.5984 22.9974C54.7924 23.2238 54.5984 23.5473 54.3073 23.5149C53.4016 23.5149 52.1078 23.4826 51.4609 23.4826C50.814 23.4826 49.3908 23.4826 48.6146 23.5149C48.3558 23.5149 48.097 23.4179 47.9677 23.2238C46.965 21.5095 46.1887 20.2157 44.8302 18.3397C43.2776 16.1726 42.1779 14.7818 40.7224 13.0675H40.6577C40.6577 15.1052 40.6577 18.2427 40.6577 19.3748C40.6577 20.9273 40.7547 22.1888 40.8841 23.1591C40.8841 23.3532 40.7224 23.5473 40.496 23.5149C39.8167 23.5149 38.6523 23.4826 37.8437 23.4826C37.035 23.4826 35.8383 23.4826 35.1914 23.5149C34.965 23.5149 34.8032 23.3532 34.8032 23.1591C34.9003 21.8977 34.965 20.6039 34.9973 19.2777C35.062 17.8222 35.062 16.1726 35.062 14.329V9.73596C35.062 7.85995 35.062 6.21036 34.9973 4.75483C34.965 3.42869 34.9003 2.10254 34.8032 0.776398C34.8032 0.582328 34.965 0.420603 35.1914 0.420603C35.8706 0.485293 37.0674 0.549983 37.8437 0.549983C38.6199 0.549983 39.7844 0.485293 40.4636 0.420603C40.69 0.420603 40.8841 0.582328 40.8518 0.776398C40.7547 1.4233 40.69 2.29661 40.6577 3.39634C40.6253 4.75483 40.593 6.2427 40.593 7.85995V10.8357H40.6577C42.1132 9.15375 43.2129 7.73057 44.7655 5.56346C46.124 3.68745 46.9003 2.39365 47.903 0.679363C48.0323 0.485293 48.2911 0.388258 48.5499 0.388258C49.3261 0.388258 50.6846 0.420603 51.3962 0.420603C52.1078 0.420603 53.3046 0.420603 54.2426 0.388258C54.5337 0.388258 54.7278 0.711708 54.5337 0.905778C54.3396 1.09985 52.2695 3.364 50.3612 5.91925L50.4259 6.01629ZM69.283 4.78718C69.3154 3.46103 69.38 2.13489 69.4771 0.808743C69.4771 0.614673 69.3154 0.452948 69.0889 0.452948C68.4097 0.517638 67.2129 0.582328 66.4366 0.582328C65.6604 0.582328 64.4636 0.517638 63.7844 0.452948C63.5579 0.452948 63.3639 0.582328 63.3962 0.808743C63.4933 2.13489 63.5579 3.46103 63.5903 4.78718C63.6226 6.2427 63.655 7.8923 63.655 9.76831V14.3613C63.655 16.2373 63.655 17.8869 63.5903 19.3424C63.5579 20.6686 63.4609 21.9624 63.3962 23.2238C63.3962 23.4179 63.5579 23.5796 63.7844 23.5796C64.4636 23.5796 65.6604 23.5473 66.4366 23.5473C67.2129 23.5473 68.4097 23.5473 69.0889 23.5796C69.3154 23.5796 69.4771 23.4179 69.4771 23.2238C69.38 21.9624 69.3154 20.6686 69.283 19.3424C69.2183 17.8869 69.2183 16.2373 69.2183 14.3936V9.80065C69.2183 7.92464 69.2183 6.27505 69.283 4.81952V4.78718ZM92.1186 11.2562C91.2776 10.674 90.372 10.1888 89.4016 9.80065C88.4313 9.41251 87.5256 8.99203 86.6846 8.57154C85.8437 8.15106 85.1321 7.66588 84.5822 7.14836C84.0323 6.63084 83.7412 5.9516 83.7412 5.11063C83.7412 3.62276 85.1644 2.29661 87.6226 2.29661C90.0808 2.29661 91.2129 2.97586 92.0539 4.75483C92.1186 4.88421 92.248 4.98125 92.4097 4.98125C92.5714 4.98125 92.7331 4.88421 92.7978 4.72249C92.9919 4.10793 93.186 3.55807 93.3154 3.13758C93.4447 2.81413 93.5418 2.45834 93.7035 2.10254C93.8329 1.81144 93.7035 1.48799 93.4124 1.32626C92.7978 0.938123 92.0862 0.647018 91.2776 0.420603C90.2749 0.129498 89.0782 -0.0322266 87.752 -0.0322266C86.4259 -0.0322266 85.5525 0.129498 84.5499 0.452948C83.5472 0.776398 82.6415 1.22923 81.8652 1.84378C81.0889 2.45834 80.4744 3.20227 80.0216 4.10793C79.5687 5.01359 79.3423 6.04863 79.3423 7.21305C79.3423 8.37747 79.6334 9.54189 80.1509 10.3505C80.7008 11.1591 81.38 11.8707 82.221 12.4206C83.0296 12.9705 83.9353 13.4556 84.9056 13.8438C85.876 14.2319 86.7817 14.6524 87.5903 15.0729C88.3989 15.4934 89.1105 15.9785 89.6604 16.4961C90.2102 17.0459 90.469 17.7252 90.469 18.5985C90.469 20.2804 89.3369 21.8006 86.1024 21.8006C82.8679 21.8006 82.3827 21.1861 81.5094 19.7953C81.283 19.4395 81.1213 19.0837 81.0242 18.6955C80.9919 18.5338 80.7978 18.4044 80.6038 18.4044C80.4097 18.4044 80.2156 18.5338 80.1833 18.7279C80.0539 19.3748 79.9245 19.957 79.7951 20.5068C79.6658 21.0244 79.504 21.5742 79.31 22.1888C79.2129 22.4799 79.3747 22.8033 79.6658 22.9327C80.1833 23.1915 80.7978 23.4179 81.5741 23.612C82.6415 23.8707 83.8383 24.0001 85.1968 24.0001C86.5552 24.0001 88.0431 23.8384 89.2399 23.4826C90.4366 23.1268 91.504 22.6416 92.3773 21.9624C93.2507 21.2831 93.9299 20.5068 94.3827 19.5688C94.8679 18.6308 95.0943 17.6281 95.0943 16.4961C95.0943 15.364 94.8032 14.1672 94.2534 13.3586C93.7035 12.55 92.9919 11.8384 92.1509 11.2562H92.1186ZM124.302 14.329V9.73596C124.302 7.85995 124.302 6.21036 124.367 4.75483C124.399 3.42869 124.464 2.10254 124.561 0.776398C124.561 0.582328 124.399 0.420603 124.172 0.420603C123.558 0.485293 122.491 0.549983 121.52 0.549983C120.485 0.549983 119.644 0.485293 118.868 0.420603C118.641 0.420603 118.447 0.549983 118.48 0.776398C118.577 2.10254 118.641 3.42869 118.674 4.72249C118.706 6.08098 118.739 7.60119 118.739 9.34782V10.0594C118.739 10.2211 118.577 10.3829 118.383 10.3829C117.768 10.3829 115.86 10.4476 114.146 10.4476C112.431 10.4476 110.491 10.4152 109.908 10.3829C109.714 10.3829 109.553 10.2211 109.553 10.0594V9.34782C109.553 7.60119 109.553 6.08098 109.617 4.72249C109.65 3.42869 109.714 2.10254 109.811 0.776398C109.811 0.582328 109.65 0.420603 109.423 0.420603C108.809 0.485293 107.741 0.549983 106.771 0.549983C105.736 0.549983 104.895 0.485293 104.119 0.420603C103.892 0.420603 103.698 0.549983 103.73 0.776398C103.827 2.10254 103.892 3.42869 103.925 4.75483C103.957 6.21036 103.989 7.85995 103.989 9.73596V14.329C103.989 16.205 103.989 17.8546 103.925 19.3101C103.892 20.6362 103.795 21.93 103.73 23.1915C103.73 23.3856 103.892 23.5473 104.119 23.5473C104.733 23.5473 105.833 23.5473 106.771 23.5149C107.806 23.5149 108.712 23.5149 109.423 23.5149C109.65 23.5149 109.811 23.3856 109.811 23.1591C109.714 21.8977 109.65 20.6039 109.617 19.2777C109.585 17.8222 109.553 16.1726 109.553 14.329V13.4556C109.553 13.2939 109.714 13.1322 109.908 13.1322C110.749 13.0998 112.464 13.0028 114.146 13.0028C115.827 13.0028 117.542 13.0998 118.383 13.1322C118.577 13.1322 118.739 13.2939 118.739 13.4556V14.329C118.739 16.205 118.739 17.8546 118.674 19.3101C118.641 20.6362 118.577 21.93 118.48 23.1915C118.48 23.3856 118.641 23.5473 118.868 23.5473C119.482 23.5473 120.582 23.5473 121.52 23.5149C122.523 23.5149 123.461 23.5149 124.172 23.5149C124.399 23.5149 124.561 23.3856 124.561 23.1591C124.464 21.8977 124.399 20.6039 124.367 19.2777C124.302 17.8222 124.302 16.1726 124.302 14.329ZM18.7601 13.0675C20.7332 11.6443 22.0593 10.8033 23.8706 9.76831C24.097 9.63893 24.1941 9.38017 24.1617 9.08906C24.1617 8.28044 24.097 6.85726 24.097 6.11332C24.097 5.36939 24.097 4.10793 24.1294 3.13758C24.1294 2.81413 23.8059 2.62006 23.5795 2.81413C23.3531 3.0082 20.9919 5.17532 18.3073 7.21305C16.1078 8.86265 13.6819 10.5446 12.0323 11.6767C10.3828 10.5446 7.95688 8.86265 5.75741 7.21305C3.13747 5.17532 0.776284 3.0082 0.582214 2.84648C0.355799 2.65241 0.0323486 2.84648 0.0323486 3.16993C0.0323486 4.14028 0.0646936 5.46642 0.0646936 6.14567C0.0646936 6.8896 0.0646936 8.31278 0.0323486 9.12141C0.0323486 9.38017 0.129384 9.67127 0.323454 9.80065C2.13477 10.8357 3.46092 11.6767 5.43396 13.0998C7.69812 14.7171 9.18599 15.8815 10.965 17.4017V17.4664H7.85984C6.14555 17.4664 4.59299 17.4664 3.16981 17.4017C2.00539 17.4017 1.09973 17.3047 0.420489 17.2077C0.194074 17.2077 0.0323486 17.3694 0.0323486 17.6281C0.0970387 18.3397 0.161729 19.5688 0.161729 20.3775C0.161729 21.1861 0.0970387 22.4475 0.0323486 23.1591C0.0323486 23.3856 0.194074 23.5796 0.388144 23.5796C1.77898 23.4826 3.16981 23.4179 4.56065 23.3856C6.08087 23.3209 7.8275 23.3209 9.7682 23.3209H14.5553C16.496 23.3209 18.2426 23.3209 19.7628 23.3856C21.1536 23.4502 22.5121 23.5149 23.8383 23.5796C24.0323 23.5796 24.2264 23.4179 24.1941 23.1915C24.1941 22.4799 24.1617 21.2184 24.1617 20.4098C24.1617 19.6012 24.1617 18.3721 24.1941 17.6605C24.1941 17.4341 24.0323 17.24 23.8059 17.2723C22.7709 17.4017 21.4447 17.4664 19.8275 17.4988C18.6307 17.4988 15.3639 17.4988 13.2291 17.5311V17.4664C15.0081 15.9462 16.496 14.7818 18.7601 13.1645V13.0675ZM12.097 3.33165C12.9704 3.33165 13.6496 2.62006 13.6496 1.77909C13.6496 0.938123 12.938 0.226533 12.097 0.226533C11.2561 0.226533 10.5445 0.938123 10.5445 1.77909C10.5445 2.62006 11.2561 3.33165 12.097 3.33165Z" fill="#FFFCE5"/>
</g>
<defs>
<clipPath id="clip0_942_2540">
<rect width="124.561" height="24" fill="white"/>
</clipPath>
</defs>
</svg>
